<?xml version="1.0" encoding="UTF-8"?><svg id="Layer_1" xmlns="http://www.w3.org/2000/svg" width="570.06" height="108.68" viewBox="0 0 570.06 108.68"><path d="m8.74,57.45V12.44c0-2.03,1.4-3.42,3.43-3.42h34.39c12.93,0,18.1,6.92,18.1,13.56,0,4.12-1.96,8.39-5.87,11.04,3.92,2.17,7.34,6.36,7.34,12.44,0,8.81-7.2,14.82-17.96,14.82H12.16c-2.03,0-3.43-1.33-3.43-3.42Zm37.89-27.47c3.77,0,5.73-2.66,5.73-5.38s-1.96-5.24-5.73-5.24h-26.07v10.62h26.07Zm1.54,20.55c3.57,0,5.66-2.38,5.66-5.24s-2.1-5.38-5.66-5.38h-27.61v10.62h27.61Z" fill="#fff" stroke-width="0"/><path d="m75.77,37.04V12.44c0-2.03,1.4-3.42,3.43-3.42h4.96c2.1,0,3.42,1.4,3.42,3.42v24.61c0,10.28,6.15,14.12,14.96,14.12s14.96-3.84,14.96-14.12V12.44c0-2.03,1.33-3.42,3.42-3.42h4.96c2.03,0,3.42,1.4,3.42,3.42v24.61c0,19.5-11.88,24.81-26.77,24.81s-26.77-5.31-26.77-24.81Z" fill="#fff" stroke-width="0"/><path d="m141.26,54.1c-1.19-.98-1.96-1.96-1.96-3.42s.49-2.38,1.26-3.29l1.82-2.1c.7-.84,1.54-1.19,2.38-1.19s1.89.35,2.59.84c6.29,4.33,12.72,6.5,20.27,6.5s14.26-2.03,14.26-6.57c0-3.78-4.68-4.96-15.1-5.66-16.57-1.12-25.86-4.82-25.86-14.4s9.93-16.78,25.44-16.78c11.6,0,19.64,3.84,22.72,6.22,1.4,1.05,2.17,2.17,2.17,3.78,0,1.05-.42,2.17-1.19,3.08l-1.82,2.1c-.7.84-1.54,1.19-2.45,1.19-.84,0-1.75-.35-2.52-.84-5.31-3.29-10.83-5.1-16.92-5.1-6.64,0-13.42,2.17-13.42,5.73s6.08,4.19,13.98,4.75c16.15,1.12,26.98,3.98,26.98,15.24s-10.76,17.68-26.56,17.68c-10.83,0-20.34-3.08-26.07-7.76Z" fill="#fff" stroke-width="0"/><path d="m205.28,57.45V12.44c0-2.03,1.4-3.42,3.43-3.42h4.96c2.1,0,3.42,1.4,3.42,3.42v16.99h29.92V12.44c0-2.03,1.4-3.42,3.43-3.42h4.96c2.1,0,3.42,1.4,3.42,3.42v45.02c0,2.1-1.33,3.42-3.42,3.42h-4.96c-2.03,0-3.43-1.33-3.43-3.42v-17.54h-29.92v17.54c0,2.1-1.33,3.42-3.42,3.42h-4.96c-2.03,0-3.43-1.33-3.43-3.42Z" fill="#fff" stroke-width="0"/><path d="m290.14,58.22l-17.96-44.53c-.28-.63-.42-1.19-.42-1.75,0-1.61,1.05-2.94,3.08-2.94h5.45c1.89,0,3.22.84,3.84,2.52l12.02,33.48,11.67-33.34c.63-1.82,1.89-2.66,3.71-2.66h4.75c1.82,0,3.08.84,3.71,2.66l11.67,33.34,12.02-33.48c.63-1.68,1.96-2.52,3.84-2.52h5.45c2.03,0,3.08,1.33,3.08,2.94,0,.56-.14,1.12-.42,1.75l-17.96,44.53c-.56,1.82-1.89,2.66-3.71,2.66h-5.45c-1.82,0-3.08-.84-3.71-2.66l-10.9-30.83-10.9,30.83c-.63,1.82-1.89,2.66-3.71,2.66h-5.45c-1.82,0-3.15-.84-3.7-2.66Z" fill="#fff" stroke-width="0"/><path d="m361.85,34.95c0-14.89,12.65-26.91,30.62-26.91s30.62,12.02,30.62,26.91-12.65,26.91-30.62,26.91-30.62-12.02-30.62-26.91Zm48.93,0c0-8.95-7.69-16.08-18.31-16.08s-18.31,7.13-18.31,16.08,7.69,16.08,18.31,16.08,18.31-7.13,18.31-16.08Z" fill="#fff" stroke-width="0"/><path d="m433.98,34.95c0-14.89,12.65-26.91,30.62-26.91s30.62,12.02,30.62,26.91-12.65,26.91-30.62,26.91-30.62-12.02-30.62-26.91Zm48.93,0c0-8.95-7.69-16.08-18.31-16.08s-18.31,7.13-18.31,16.08,7.69,16.08,18.31,16.08,18.31-7.13,18.31-16.08Z" fill="#fff" stroke-width="0"/><path d="m505.55,57.45V12.44c0-2.03,1.4-3.42,3.43-3.42h27.89c17.83,0,27.4,11.04,27.4,25.93s-9.58,25.93-27.4,25.93h-27.89c-2.03,0-3.43-1.33-3.43-3.42Zm30.97-6.92c10.62,0,15.45-7.55,15.45-15.59s-4.82-15.59-15.45-15.59h-19.15v31.17h19.15Z" fill="#fff" stroke-width="0"/><path d="m232.69,94.08c0,1.26,1.39,2.2,3.1,2.2,3.1,0,4.95-2.25,5.98-4.45.81-1.84,3.64-1.12,2.79.76-1.93,4.27-5.03,6.56-8.72,6.56s-6.2-1.75-6.2-4.81c0-.99.22-2.02.81-3.24l1.53-3.37c1.21-2.56,2.92-4.85,5.93-4.85,2.56,0,3.64,1.53,3.64,3.42,0,.85-.22,1.8-.63,2.65-1.12,2.65-3.01,3.91-5.08,3.91-.85,0-1.75-.45-2.2-.9-.13-.13-.23-.04-.27.14l-.31.76c-.27.49-.36.9-.36,1.21Zm2.97-3.87c.99,0,1.75-.76,2.38-2.07.27-.45.45-1.03.45-1.53,0-.58-.27-.99-.99-.99-.99,0-1.66.85-2.29,2.2l-.67,1.48c-.09.22-.13.45.09.58.31.22.63.31,1.03.31Z" fill="#c3ebc4" stroke-width="0"/><path d="m243.43,95.88c.32.22.76.36,1.12.36,1.57,0,2.79-1.53,2.79-3.37,0-1.17-.58-2.79-.72-3.78-.04-.31-.09-.49-.14-.49-.09,0-.13.04-.36.54-.4.81-1.12,2.47-1.57,3.46-.85,1.93-3.69,1.21-2.79-.76l1.08-2.43c2.25-4.9,4.27-6.65,7.15-6.65.76,0,1.48.27,1.84.49,1.39.94.09,3.15-1.17,2.52-.22-.13-.49-.22-.81-.22-.81,0-1.35.63-1.35,1.35,0,1.62,1.84,3.6,1.84,6.16,0,3.24-2.52,6.07-5.93,6.07-.72,0-1.8-.18-2.34-.54-1.8-1.08-.31-3.6,1.35-2.7Z" fill="#c3ebc4" stroke-width="0"/><path d="m260.11,91.83c.9-1.93,3.64-1.08,2.83.76-1.53,3.28-3.46,6.52-7.15,6.52-2.83,0-4.32-1.39-4.32-3.64,0-.85.27-2.02,1.03-3.64l2.16-4.67c.18-.45.22-.76.04-.76h-.18c-.9,0-1.17-.5-.81-1.44.36-.85.81-1.3,1.8-1.3h.18c.5,0,.67-.32.9-.72l1.62-3.51c.9-1.89,3.78-1.3,2.7,1.12l-1.17,2.52c-.18.41-.18.58.27.58h.36c1.03,0,1.44.63,1.03,1.57-.31.72-.81,1.17-1.66,1.17h-.67c-.54,0-.94.27-1.17.76l-2.74,5.98c-.27.63-.49,1.26-.49,1.8,0,.72.4,1.26,1.3,1.26,1.8,0,3.1-2.2,4.13-4.36Z" fill="#c3ebc4" stroke-width="0"/><path d="m264.74,99.07c-1.35,0-2.2-1.17-1.98-2.43.18-1.26,1.39-2.29,2.56-2.29,1.39,0,2.34,1.08,2.07,2.47-.22,1.21-1.35,2.25-2.65,2.25Z" fill="#c3ebc4" stroke-width="0"/><path d="m285.06,81.99c-1.93.14-2.07-2.83-.09-2.92,2.61-.18,4.32-1.57,5.3-3.6.67-1.57,3.15-.85,2.38.81l-10.16,22.03c-.85,1.84-3.46.85-2.52-1.17l5.66-12.23,1.44-2.92c.22-.49.09-.58-.41-.36-.49.18-1.03.31-1.62.36Z" fill="#c3ebc4" stroke-width="0"/><path d="m299.27,93.49c-5.53,0-7.69-5.57-5.98-10.43,1.48-4.32,5.71-7.96,10.52-7.96,4.54,0,7.01,3.46,7.01,7.33,0,10.83-10.25,22.39-21.35,22.39-1.66,0-3.6-.27-5.04-.9-1.75-.81-.58-3.78,1.26-2.88,1.08.58,2.74.81,4.09.81,6.29,0,11.87-4.32,15.33-9.8.54-.81.36-.9-.45-.36-1.57,1.08-3.42,1.8-5.39,1.8Zm4.27-15.51c-3.19,0-6.25,2.74-7.37,5.93-1.17,3.37.04,6.7,3.73,6.7,4.18,0,7.96-4.58,7.96-8.32,0-2.47-1.66-4.32-4.32-4.32Z" fill="#c3ebc4" stroke-width="0"/><path d="m317.43,80.32c0-4.94,4.63-8.54,8.81-8.54,3.37,0,5.53,2.34,5.53,5.44s-2.16,6.07-4.94,7.6c-.45.23-.49.58-.22.99.67.99,1.03,2.2,1.03,3.55,0,5.17-4.94,9.8-10.07,9.8-3.96,0-6.43-2.47-6.43-6.07,0-3.78,2.83-7.55,6.47-9.08.45-.22.58-.58.36-1.03-.36-.81-.54-1.71-.54-2.65Zm-3.15,12.41c0,2.25,1.66,3.55,3.73,3.55,3.33,0,6.56-3.51,6.56-6.79,0-2.11-1.48-3.46-3.6-3.46-3.51,0-6.7,3.55-6.7,6.7Zm6.2-12.63c0,1.89,1.3,2.92,3.01,2.92,2.65,0,5.3-2.83,5.3-5.44,0-1.8-1.26-2.97-3.01-2.97-2.79,0-5.3,2.97-5.3,5.48Z" fill="#c3ebc4" stroke-width="0"/><path d="m344.13,75.11c4.45,0,6.7,3.33,6.7,7.64,0,7.1-6.25,16.36-13.84,16.36-4.45,0-6.61-2.88-6.61-7.06,0-7.24,6.16-16.95,13.76-16.95Zm-6.7,21.13c5.39,0,10.43-8.05,10.43-13.35,0-3.06-1.66-4.94-4-4.94-5.39,0-10.52,8.36-10.52,13.71,0,3.1,1.8,4.58,4.09,4.58Z" fill="#c3ebc4" stroke-width="0"/></svg>