<?xml version="1.0" encoding="UTF-8"?><svg id="Layer_1" xmlns="http://www.w3.org/2000/svg" width="410.4" height="305.06" viewBox="0 0 410.4 305.06"><path d="m312.75,64.11c-22.13-3.45-33.41-13.59-36.6-32.9-.5-3.01-3.08-5.2-6.13-5.2h-34.81c-.18,0-.35.01-.52.03.32-1.16.18-2.44-.49-3.53-.61-1-6.21-9.83-14.9-11.94-4.55-1.07-10.1-1.13-14.99-1.19-3.12-.04-7.01-.08-8.17-.49-1.79-.62-4.28-3.19-5.48-4.82-.77-1.05-1.93-1.69-3.16-1.82-.98-1.31-2.54-2.17-4.35-2.24-1.57-.06-2.6.1-3.91.63-2.52,1.02-3.96,3.4-3.58,5.94l2.94,19.46c-1.52,0-2.05-.04-3.35-.04h-34.8c-3.06,0-5.63,2.19-6.13,5.2-3.18,19.31-14.47,29.45-36.6,32.9-3.06.48-5.32,3.18-5.25,6.28,1.35,61.98,7.13,100.53,19.32,128.89,11.87,27.63,28.77,43.96,52.16,66.57,10.81,10.45,23.07,22.3,36.71,37.2,1.17,1.28,2.84,2.02,4.58,2.02s3.41-.73,4.58-2.02c13.64-14.89,25.9-26.74,36.72-37.2,23.39-22.61,40.28-38.94,52.15-66.57,12.18-28.36,17.96-66.91,19.32-128.89.07-3.1-2.19-5.8-5.26-6.28Zm-108.54-45.74c4.43.05,9.45.11,13,.94.22.05.44.12.65.19-7.29,2.98-16.24,8.72-22.03,12.68l-2.45-14.73c2.54.82,6.21.87,10.83.92Zm4.34,205.54c-2.03-.3-3.59-.78-4.56-1.24.86-.55,2.26-1.17,4.11-1.69l.44,2.93Zm13.03-.8l-.45-2.95c2.06.3,3.65.78,4.62,1.25-.87.55-2.29,1.18-4.17,1.71Zm-14.82-11.07c-7.1,1.76-12.88,5.5-12.55,11.2.12,2.15,1.34,6.1,8.04,8.4,3.02,1.04,6.76,1.58,10.72,1.58.84,0,1.69-.03,2.55-.08,4.89-.28,9.51-1.36,13-3.04,6.39-3.06,7.14-7.13,7.01-9.28-.36-6.23-7.7-9.27-15.8-9.87l-.28-1.83c1.62-.05,3.25-.07,4.87-.07,16.46,0,32.39,2.27,47.45,6.75-9.47,13.33-21.35,24.82-36.02,38.99-9.09,8.79-19.29,18.65-30.52,30.52-11.23-11.87-21.44-21.74-30.55-30.55l-2.1,2.14s0,0,0,0c0,0,0,0,0,0l2.09-2.16c-10.03-9.7-18.87-18.24-26.49-26.99,17.06-9.45,37.17-15.53,58.28-17.75l.31,2.03Z" fill="#fff" stroke-width="0"/><path d="m171.5,257.97c9.99,9.66,21.24,20.53,33.7,33.91,12.47-13.39,23.71-24.26,33.7-33.91,16.51-15.96,29.71-28.72,39.94-44.64-16.59-5.64-35.07-8.79-54.54-8.79-31.57,0-60.51,8.26-83.06,22.01,8.51,10.38,18.55,20.09,30.27,31.42Z" fill="#c3ebc4" stroke-width="0"/><ellipse cx="214.84" cy="222.02" rx="16.2" ry="6.63" transform="translate(-12.54 12.86) rotate(-3.33)" fill="#104410" stroke-width="0"/><path d="m205.2,300.54c-.48,0-.94-.2-1.26-.56-13.72-14.99-26.04-26.89-36.91-37.4-23.01-22.24-39.64-38.32-51.15-65.12-11.94-27.8-17.61-65.84-18.95-127.21-.02-.86.6-1.6,1.45-1.73,24.02-3.74,36.85-15.38,40.35-36.61.14-.83.85-1.44,1.69-1.44h34.81c.95,0,1.71.77,1.71,1.71s-.77,1.71-1.71,1.71h-33.37c-4,21.27-17.59,33.64-41.47,37.77,2.88,124.5,23.68,144.61,69.02,188.45,10.57,10.21,22.5,21.75,35.79,36.17,13.29-14.42,25.22-25.95,35.78-36.17,45.35-43.84,66.14-63.94,69.02-188.45-23.88-4.12-37.46-16.5-41.47-37.77h-33.37c-.95,0-1.71-.77-1.71-1.71s.77-1.71,1.71-1.71h34.81c.84,0,1.56.61,1.69,1.44,3.5,21.24,16.32,32.87,40.35,36.61.85.13,1.47.87,1.45,1.73-1.34,61.37-7.01,99.41-18.95,127.21-11.51,26.8-28.14,42.87-51.15,65.12-10.86,10.5-23.18,22.41-36.9,37.39-.32.36-.78.56-1.26.56Z" fill="#c3ebc4" stroke-width="0"/><path id="flag" d="m187,6.71s3.67,5.03,7.63,6.41c3.96,1.38,15.94.01,23.61,1.81,7.09,1.73,12.08,9.9,12.08,9.9,0,0-4.71-3.63-10.62-1.25-11.18,4.51-27.17,16.41-27.17,16.41l-5.54-33.28Z" fill="#ed500a" fill-rule="evenodd" stroke-width="0"/><path d="m213.47,225.56L180.08,5.89c-.08-.53.32-.9.81-1.1.68-.27,1.06-.34,2.04-.3.53.02,1.02.29,1.1.81l33.39,219.67c.08.53-.16.83-.66,1.03s-2.06.22-2.06.22c-.53.08-1.16-.13-1.24-.66Z" fill="#c3ebc4" stroke-width="0"/><path d="m6.29,136.81v-32.41c0-1.46,1.01-2.47,2.47-2.47h24.76c9.31,0,13.03,4.98,13.03,9.76,0,2.97-1.41,6.04-4.23,7.95,2.82,1.56,5.28,4.58,5.28,8.96,0,6.34-5.18,10.67-12.93,10.67H8.76c-1.46,0-2.47-.96-2.47-2.47Zm27.28-19.78c2.72,0,4.13-1.91,4.13-3.88s-1.41-3.77-4.13-3.77H14.79v7.65h18.77Zm1.11,14.79c2.57,0,4.08-1.71,4.08-3.77s-1.51-3.88-4.08-3.88H14.79v7.65h19.88Z" fill="#104410" stroke-width="0"/><path d="m54.55,122.12v-17.71c0-1.46,1.01-2.47,2.47-2.47h3.57c1.51,0,2.47,1.01,2.47,2.47v17.71c0,7.4,4.43,10.17,10.77,10.17s10.77-2.77,10.77-10.17v-17.71c0-1.46.96-2.47,2.47-2.47h3.57c1.46,0,2.47,1.01,2.47,2.47v17.71c0,14.04-8.56,17.86-19.27,17.86s-19.27-3.82-19.27-17.86Z" fill="#104410" stroke-width="0"/><path d="m101.7,134.4c-.86-.7-1.41-1.41-1.41-2.47s.35-1.71.91-2.37l1.31-1.51c.5-.6,1.11-.86,1.71-.86s1.36.25,1.86.6c4.53,3.12,9.16,4.68,14.59,4.68s10.27-1.46,10.27-4.73c0-2.72-3.37-3.57-10.87-4.08-11.93-.8-18.62-3.47-18.62-10.37s7.15-12.08,18.32-12.08c8.35,0,14.14,2.77,16.35,4.48,1.01.75,1.56,1.56,1.56,2.72,0,.75-.3,1.56-.86,2.21l-1.31,1.51c-.5.6-1.11.86-1.76.86-.6,0-1.26-.25-1.81-.6-3.82-2.37-7.8-3.67-12.18-3.67-4.78,0-9.66,1.56-9.66,4.13s4.38,3.02,10.06,3.42c11.62.81,19.42,2.87,19.42,10.97s-7.75,12.73-19.12,12.73c-7.8,0-14.64-2.21-18.77-5.59Z" fill="#104410" stroke-width="0"/><path d="m147.79,136.81v-32.41c0-1.46,1.01-2.47,2.47-2.47h3.57c1.51,0,2.47,1.01,2.47,2.47v12.23h21.54v-12.23c0-1.46,1.01-2.47,2.47-2.47h3.57c1.51,0,2.47,1.01,2.47,2.47v32.41c0,1.51-.96,2.47-2.47,2.47h-3.57c-1.46,0-2.47-.96-2.47-2.47v-12.63h-21.54v12.63c0,1.51-.96,2.47-2.47,2.47h-3.57c-1.46,0-2.47-.96-2.47-2.47Z" fill="#104410" stroke-width="0"/><path d="m208.88,137.37l-12.93-32.06c-.2-.45-.3-.86-.3-1.26,0-1.16.75-2.11,2.21-2.11h3.93c1.36,0,2.31.6,2.77,1.81l8.66,24.1,8.4-24c.45-1.31,1.36-1.91,2.67-1.91h3.42c1.31,0,2.21.6,2.67,1.91l8.4,24,8.66-24.1c.45-1.21,1.41-1.81,2.77-1.81h3.92c1.46,0,2.21.96,2.21,2.11,0,.4-.1.81-.3,1.26l-12.93,32.06c-.4,1.31-1.36,1.91-2.67,1.91h-3.93c-1.31,0-2.21-.6-2.67-1.91l-7.85-22.19-7.85,22.19c-.45,1.31-1.36,1.91-2.67,1.91h-3.92c-1.31,0-2.26-.6-2.67-1.91Z" fill="#104410" stroke-width="0"/><path d="m260.5,120.61c0-10.72,9.11-19.38,22.04-19.38s22.04,8.66,22.04,19.38-9.11,19.37-22.04,19.37-22.04-8.66-22.04-19.37Zm35.23,0c0-6.44-5.54-11.57-13.18-11.57s-13.18,5.13-13.18,11.57,5.54,11.57,13.18,11.57,13.18-5.13,13.18-11.57Z" fill="#104410" stroke-width="0"/><path d="m312.43,120.61c0-10.72,9.11-19.38,22.04-19.38s22.04,8.66,22.04,19.38-9.11,19.37-22.04,19.37-22.04-8.66-22.04-19.37Zm35.23,0c0-6.44-5.54-11.57-13.18-11.57s-13.18,5.13-13.18,11.57,5.54,11.57,13.18,11.57,13.18-5.13,13.18-11.57Z" fill="#104410" stroke-width="0"/><path d="m363.96,136.81v-32.41c0-1.46,1.01-2.47,2.47-2.47h20.08c12.83,0,19.73,7.95,19.73,18.67s-6.89,18.67-19.73,18.67h-20.08c-1.46,0-2.47-.96-2.47-2.47Zm22.29-4.98c7.65,0,11.12-5.43,11.12-11.22s-3.47-11.22-11.12-11.22h-13.79v22.44h13.79Z" fill="#104410" stroke-width="0"/><path d="m152.84,173.75c0,1.09,1.21,1.91,2.69,1.91,2.69,0,4.29-1.95,5.19-3.86.7-1.6,3.16-.97,2.42.66-1.68,3.71-4.37,5.69-7.57,5.69s-5.38-1.52-5.38-4.17c0-.86.2-1.75.7-2.81l1.33-2.92c1.05-2.22,2.54-4.21,5.15-4.21,2.22,0,3.16,1.33,3.16,2.96,0,.74-.2,1.56-.55,2.3-.98,2.3-2.61,3.39-4.41,3.39-.74,0-1.52-.39-1.91-.78-.12-.12-.2-.04-.23.12l-.27.66c-.23.43-.31.78-.31,1.05Zm2.57-3.35c.86,0,1.52-.66,2.07-1.79.23-.39.39-.9.39-1.33,0-.51-.23-.86-.86-.86-.86,0-1.44.74-1.99,1.91l-.58,1.29c-.08.2-.12.39.08.51.27.2.55.27.9.27Z" fill="#104410" stroke-width="0"/><path d="m162.16,175.31c.27.19.66.31.98.31,1.37,0,2.42-1.33,2.42-2.92,0-1.01-.51-2.42-.62-3.28-.04-.27-.08-.43-.12-.43-.08,0-.12.04-.31.47-.35.7-.98,2.15-1.37,3-.74,1.68-3.2,1.05-2.42-.66l.94-2.11c1.95-4.25,3.71-5.77,6.2-5.77.66,0,1.29.23,1.6.43,1.21.82.08,2.73-1.01,2.18-.19-.12-.43-.2-.7-.2-.7,0-1.17.55-1.17,1.17,0,1.4,1.6,3.12,1.6,5.34,0,2.81-2.18,5.26-5.15,5.26-.62,0-1.56-.16-2.03-.47-1.56-.94-.27-3.12,1.17-2.34Z" fill="#104410" stroke-width="0"/><path d="m176.63,171.8c.78-1.68,3.16-.94,2.46.66-1.33,2.85-3,5.66-6.2,5.66-2.46,0-3.74-1.21-3.74-3.16,0-.74.23-1.75.9-3.16l1.87-4.06c.16-.39.19-.66.04-.66h-.16c-.78,0-1.01-.43-.7-1.25.31-.74.7-1.13,1.56-1.13h.16c.43,0,.58-.27.78-.62l1.4-3.04c.78-1.64,3.28-1.13,2.34.97l-1.01,2.18c-.16.35-.16.51.23.51h.31c.9,0,1.25.55.9,1.37-.27.62-.7,1.01-1.44,1.01h-.58c-.47,0-.82.23-1.01.66l-2.38,5.19c-.23.55-.43,1.09-.43,1.56,0,.62.35,1.09,1.13,1.09,1.56,0,2.69-1.91,3.59-3.78Z" fill="#104410" stroke-width="0"/><path d="m180.64,178.08c-1.17,0-1.91-1.01-1.72-2.11.16-1.09,1.21-1.99,2.22-1.99,1.21,0,2.03.94,1.79,2.14-.2,1.05-1.17,1.95-2.3,1.95Z" fill="#104410" stroke-width="0"/><path d="m198.27,163.26c-1.68.12-1.79-2.46-.08-2.54,2.26-.16,3.74-1.37,4.6-3.12.58-1.37,2.73-.74,2.07.7l-8.81,19.11c-.74,1.6-3,.74-2.18-1.01l4.91-10.61,1.25-2.54c.2-.43.08-.51-.35-.31-.43.16-.9.27-1.4.31Z" fill="#104410" stroke-width="0"/><path d="m210.59,173.25c-4.8,0-6.67-4.84-5.19-9.05,1.29-3.74,4.95-6.9,9.13-6.9,3.94,0,6.08,3,6.08,6.36,0,9.4-8.89,19.42-18.53,19.42-1.44,0-3.12-.23-4.37-.78-1.52-.7-.51-3.28,1.09-2.5.94.51,2.38.7,3.55.7,5.46,0,10.3-3.74,13.3-8.5.47-.7.31-.78-.39-.31-1.37.94-2.96,1.56-4.68,1.56Zm3.71-13.46c-2.77,0-5.42,2.38-6.4,5.15-1.01,2.93.04,5.81,3.24,5.81,3.63,0,6.9-3.98,6.9-7.21,0-2.15-1.44-3.74-3.74-3.74Z" fill="#104410" stroke-width="0"/><path d="m226.35,161.82c0-4.29,4.02-7.41,7.64-7.41,2.92,0,4.8,2.03,4.8,4.72s-1.87,5.26-4.29,6.59c-.39.2-.43.51-.2.86.58.86.9,1.91.9,3.08,0,4.49-4.29,8.5-8.74,8.5-3.43,0-5.58-2.14-5.58-5.26,0-3.28,2.46-6.55,5.62-7.88.39-.19.51-.51.31-.9-.31-.7-.47-1.48-.47-2.3Zm-2.73,10.76c0,1.95,1.44,3.08,3.24,3.08,2.89,0,5.69-3.04,5.69-5.89,0-1.83-1.29-3-3.12-3-3.04,0-5.81,3.08-5.81,5.81Zm5.38-10.96c0,1.64,1.13,2.54,2.61,2.54,2.3,0,4.6-2.46,4.6-4.72,0-1.56-1.09-2.57-2.61-2.57-2.42,0-4.6,2.57-4.6,4.76Z" fill="#104410" stroke-width="0"/><path d="m248.5,162.21c3.55,0,5.77,2.65,5.77,6.12,0,5.03-4.56,9.83-9.67,9.83-4.33,0-6.08-2.96-6.08-6.67,0-9.09,10.34-18.21,19.19-18.21,1.33,0,2.77.16,3.98.66,1.56.62.62,3.08-1.05,2.42-.82-.35-2.03-.58-2.92-.58-5.27,0-10.22,3.24-13.61,7.45-.7.86-.58.94.31.31,1.25-.82,2.57-1.33,4.09-1.33Zm-3.63,13.42c3.47,0,6.75-3.9,6.75-7.25,0-2.22-1.4-3.67-3.63-3.67-3.59,0-6.83,3.98-6.83,7.18,0,2.15,1.4,3.74,3.71,3.74Z" fill="#104410" stroke-width="0"/></svg>