<?xml version="1.0" encoding="UTF-8"?><svg id="Layer_1" xmlns="http://www.w3.org/2000/svg" width="570.06" height="337.17" viewBox="0 0 570.06 337.17"><path d="m288.39,267.44c-2.03-.3-3.59-.78-4.56-1.24.86-.55,2.26-1.17,4.11-1.69l.44,2.93Z" fill="#fff" stroke-width="0"/><ellipse cx="294.67" cy="265.55" rx="16.2" ry="6.63" transform="translate(-14.94 17.58) rotate(-3.33)" fill="#104410" stroke-width="0"/><path id="flag" d="m259.81,3.77s3.67,5.03,7.63,6.41c3.96,1.38,15.94.01,23.61,1.81,7.09,1.73,12.08,9.9,12.08,9.9,0,0-4.71-3.63-10.62-1.25-11.18,4.51-27.17,16.41-27.17,16.41l-5.54-33.28Z" fill="#ed500a" fill-rule="evenodd" stroke-width="0"/><path d="m399.09,106.88c-20.65-2.72-24.59-4.61-27.99-22.08l-1.26-6.47h-169.62l-1.26,6.47c-3.12,16.02-5.47,19.11-28,22.08l-7.13.94.19,7.2c1.45,56.22,7.67,91.27,20.81,117.19,12.83,25.31,30.9,40.12,55.93,60.62,11.45,9.38,24.43,20.02,38.84,33.35l5.43,5.03,5.43-5.03c14.41-13.34,27.39-23.98,38.85-33.37,25.01-20.49,43.08-35.3,55.91-60.61,13.14-25.92,19.36-60.97,20.81-117.19l.19-7.2-7.14-.94Z" fill="#fff" stroke-width="0"/><path d="m287.82,335.45c-1.58,1.46-4.01,1.46-5.58,0l-6.04-5.59c-14.3-13.24-27.22-23.82-38.61-33.15-25.5-20.89-43.91-35.98-57.22-62.23-13.5-26.63-19.88-62.32-21.35-119.32l-.3-11.69,11.59-1.53c20.76-2.74,21.1-4.49,23.74-18.08l2.04-10.52h177.87l2.04,10.52c2.82,14.48,4.15,15.49,23.74,18.07l11.6,1.53-.3,11.69c-1.47,57.01-7.86,92.7-21.35,119.32-13.31,26.25-31.72,41.34-57.2,62.21-11.45,9.38-24.35,19.95-38.62,33.17l-6.04,5.59Zm-118.88-223.25l.07,2.7c1.43,55.43,7.49,89.84,20.27,115.06,12.35,24.37,30.09,38.9,54.63,59.01,11.51,9.43,24.54,20.11,39.07,33.55l.71.65c.75.7,1.91.7,2.67,0l.7-.65c14.5-13.42,27.52-24.09,39.01-33.51,24.6-20.16,42.33-34.68,54.68-59.05,12.78-25.22,18.85-59.63,20.28-115.06l.07-2.7-2.68-.35c-22.24-2.94-28.31-5.88-32.25-26.08l-.47-2.43h-161.38l-.47,2.43c-3.71,19.05-8.53,22.95-32.25,26.08l-2.67.35Z" fill="#fff" stroke-width="0"/><path d="m246.34,284.73c11.35,9.3,24.09,19.74,38.16,32.45,14.08-12.71,26.81-23.14,38.15-32.43,23.02-18.86,40.4-33.11,52.88-53.14-17.94-2.58-36.76-3.96-56.16-3.96-42.37,0-81.98,6.56-115.69,17.94,11.25,13.38,25.36,24.97,42.66,39.14Z" fill="#c3ebc4" stroke-width="0"/><path d="m286.28,323.25c-.7.65-1.79.65-2.5,0l-.79-.73c-14.53-13.45-27.57-24.13-39.08-33.57-24.54-20.1-42.27-34.63-54.62-59-12.78-25.22-18.85-59.63-20.28-115.06l-.07-2.7,2.68-.35c22.25-2.94,28.32-5.88,32.25-26.08l.47-2.43h49.31c1.62,0,3.08,1.22,3.16,2.84.09,1.73-1.29,3.16-3,3.16h-44.57c-4.69,21.25-13.55,25.18-34.17,28.09,3.17,109.99,25.08,127.93,72.63,166.88,11.04,9.04,23.48,19.24,37.32,31.93,13.84-12.69,26.28-22.88,37.32-31.92,47.54-38.96,69.45-56.9,72.63-166.89-20.62-2.91-29.48-6.84-34.17-28.09h-82.24c-1.62,0-3.08-1.22-3.16-2.84-.09-1.73,1.29-3.16,3-3.16h87.32l.47,2.43c3.93,20.2,10,23.14,32.25,26.08l2.68.35-.07,2.7c-1.43,55.43-7.49,89.84-20.28,115.06s-30.08,38.9-54.62,59c-11.51,9.43-24.55,20.12-39.08,33.56l-.79.73Z" fill="#c3ebc4" stroke-width="0"/><ellipse cx="291.79" cy="247.56" rx="16.2" ry="6.63" transform="translate(-13.9 17.38) rotate(-3.33)" fill="#104410" stroke-width="0"/><path d="m8.74,171.89v-45.02c0-2.03,1.4-3.42,3.43-3.42h34.39c12.93,0,18.1,6.92,18.1,13.56,0,4.12-1.96,8.39-5.87,11.04,3.92,2.17,7.34,6.36,7.34,12.44,0,8.81-7.2,14.82-17.96,14.82H12.16c-2.03,0-3.43-1.33-3.43-3.42Zm37.89-27.47c3.77,0,5.73-2.66,5.73-5.38s-1.96-5.24-5.73-5.24h-26.07v10.62h26.07Zm1.54,20.55c3.57,0,5.66-2.38,5.66-5.24s-2.1-5.38-5.66-5.38h-27.61v10.62h27.61Z" fill="#104410" stroke-width="0"/><path d="m75.77,151.48v-24.61c0-2.03,1.4-3.42,3.43-3.42h4.96c2.1,0,3.42,1.4,3.42,3.42v24.61c0,10.28,6.15,14.12,14.96,14.12s14.96-3.84,14.96-14.12v-24.61c0-2.03,1.33-3.42,3.42-3.42h4.96c2.03,0,3.42,1.4,3.42,3.42v24.61c0,19.5-11.88,24.81-26.77,24.81s-26.77-5.31-26.77-24.81Z" fill="#104410" stroke-width="0"/><path d="m141.26,168.54c-1.19-.98-1.96-1.96-1.96-3.42s.49-2.38,1.26-3.29l1.82-2.1c.7-.84,1.54-1.19,2.38-1.19s1.89.35,2.59.84c6.29,4.33,12.72,6.5,20.27,6.5s14.26-2.03,14.26-6.57c0-3.78-4.68-4.96-15.1-5.66-16.57-1.12-25.86-4.82-25.86-14.4s9.93-16.78,25.44-16.78c11.6,0,19.64,3.84,22.72,6.22,1.4,1.05,2.17,2.17,2.17,3.78,0,1.05-.42,2.17-1.19,3.08l-1.82,2.1c-.7.84-1.54,1.19-2.45,1.19-.84,0-1.75-.35-2.52-.84-5.31-3.29-10.83-5.1-16.92-5.1-6.64,0-13.42,2.17-13.42,5.73s6.08,4.19,13.98,4.75c16.15,1.12,26.98,3.98,26.98,15.24s-10.76,17.68-26.56,17.68c-10.83,0-20.34-3.08-26.07-7.76Z" fill="#104410" stroke-width="0"/><path d="m205.28,171.89v-45.02c0-2.03,1.4-3.42,3.43-3.42h4.96c2.1,0,3.42,1.4,3.42,3.42v16.99h29.92v-16.99c0-2.03,1.4-3.42,3.43-3.42h4.96c2.1,0,3.42,1.4,3.42,3.42v45.02c0,2.1-1.33,3.42-3.42,3.42h-4.96c-2.03,0-3.43-1.33-3.43-3.42v-17.54h-29.92v17.54c0,2.1-1.33,3.42-3.42,3.42h-4.96c-2.03,0-3.43-1.33-3.43-3.42Z" fill="#104410" stroke-width="0"/><path d="m290.14,172.66l-17.96-44.53c-.28-.63-.42-1.19-.42-1.75,0-1.61,1.05-2.94,3.08-2.94h5.45c1.89,0,3.22.84,3.84,2.52l12.02,33.48,11.67-33.34c.63-1.82,1.89-2.66,3.71-2.66h4.75c1.82,0,3.08.84,3.71,2.66l11.67,33.34,12.02-33.48c.63-1.68,1.96-2.52,3.84-2.52h5.45c2.03,0,3.08,1.33,3.08,2.94,0,.56-.14,1.12-.42,1.75l-17.96,44.53c-.56,1.82-1.89,2.66-3.71,2.66h-5.45c-1.82,0-3.08-.84-3.71-2.66l-10.9-30.83-10.9,30.83c-.63,1.82-1.89,2.66-3.71,2.66h-5.45c-1.82,0-3.15-.84-3.7-2.66Z" fill="#104410" stroke-width="0"/><path d="m361.85,149.39c0-14.89,12.65-26.91,30.62-26.91s30.62,12.02,30.62,26.91-12.65,26.91-30.62,26.91-30.62-12.02-30.62-26.91Zm48.93,0c0-8.95-7.69-16.08-18.31-16.08s-18.31,7.13-18.31,16.08,7.69,16.08,18.31,16.08,18.31-7.13,18.31-16.08Z" fill="#104410" stroke-width="0"/><path d="m433.98,149.39c0-14.89,12.65-26.91,30.62-26.91s30.62,12.02,30.62,26.91-12.65,26.91-30.62,26.91-30.62-12.02-30.62-26.91Zm48.93,0c0-8.95-7.69-16.08-18.31-16.08s-18.31,7.13-18.31,16.08,7.69,16.08,18.31,16.08,18.31-7.13,18.31-16.08Z" fill="#104410" stroke-width="0"/><path d="m505.55,171.89v-45.02c0-2.03,1.4-3.42,3.43-3.42h27.89c17.83,0,27.4,11.04,27.4,25.93s-9.58,25.93-27.4,25.93h-27.89c-2.03,0-3.43-1.33-3.43-3.42Zm30.97-6.92c10.62,0,15.45-7.55,15.45-15.59s-4.82-15.59-15.45-15.59h-19.15v31.17h19.15Z" fill="#104410" stroke-width="0"/><line x1="252.82" y1="4.48" x2="291.72" y2="247.13" fill="none" stroke="#c3ebc4" stroke-linecap="round" stroke-miterlimit="10" stroke-width="6"/><path d="m232.69,208.52c0,1.26,1.39,2.2,3.1,2.2,3.1,0,4.95-2.25,5.98-4.45.81-1.84,3.64-1.12,2.79.76-1.93,4.27-5.03,6.56-8.72,6.56s-6.2-1.75-6.2-4.81c0-.99.22-2.02.81-3.24l1.53-3.37c1.21-2.56,2.92-4.85,5.93-4.85,2.56,0,3.64,1.53,3.64,3.42,0,.85-.22,1.8-.63,2.65-1.12,2.65-3.01,3.91-5.08,3.91-.85,0-1.75-.45-2.2-.9-.13-.13-.23-.04-.27.14l-.31.76c-.27.49-.36.9-.36,1.21Zm2.97-3.87c.99,0,1.75-.76,2.38-2.07.27-.45.45-1.03.45-1.53,0-.58-.27-.99-.99-.99-.99,0-1.66.85-2.29,2.2l-.67,1.48c-.09.22-.13.45.09.58.31.22.63.31,1.03.31Z" fill="#104410" stroke-width="0"/><path d="m243.43,210.32c.32.22.76.36,1.12.36,1.57,0,2.79-1.53,2.79-3.37,0-1.17-.58-2.79-.72-3.78-.04-.31-.09-.49-.14-.49-.09,0-.13.04-.36.54-.4.81-1.12,2.47-1.57,3.46-.85,1.93-3.69,1.21-2.79-.76l1.08-2.43c2.25-4.9,4.27-6.65,7.15-6.65.76,0,1.48.27,1.84.49,1.39.94.09,3.15-1.17,2.52-.22-.13-.49-.22-.81-.22-.81,0-1.35.63-1.35,1.35,0,1.62,1.84,3.6,1.84,6.16,0,3.24-2.52,6.07-5.93,6.07-.72,0-1.8-.18-2.34-.54-1.8-1.08-.31-3.6,1.35-2.7Z" fill="#104410" stroke-width="0"/><path d="m260.11,206.27c.9-1.93,3.64-1.08,2.83.76-1.53,3.28-3.46,6.52-7.15,6.52-2.83,0-4.32-1.39-4.32-3.64,0-.85.27-2.02,1.03-3.64l2.16-4.67c.18-.45.22-.76.04-.76h-.18c-.9,0-1.17-.5-.81-1.44.36-.85.81-1.3,1.8-1.3h.18c.5,0,.67-.32.9-.72l1.62-3.51c.9-1.89,3.78-1.3,2.7,1.12l-1.17,2.52c-.18.41-.18.58.27.58h.36c1.03,0,1.44.63,1.03,1.57-.31.72-.81,1.17-1.66,1.17h-.67c-.54,0-.94.27-1.17.76l-2.74,5.98c-.27.63-.49,1.26-.49,1.8,0,.72.4,1.26,1.3,1.26,1.8,0,3.1-2.2,4.13-4.36Z" fill="#104410" stroke-width="0"/><path d="m264.74,213.51c-1.35,0-2.2-1.17-1.98-2.43.18-1.26,1.39-2.29,2.56-2.29,1.39,0,2.34,1.08,2.07,2.47-.22,1.21-1.35,2.25-2.65,2.25Z" fill="#104410" stroke-width="0"/><path d="m285.06,196.43c-1.93.14-2.07-2.83-.09-2.92,2.61-.18,4.32-1.57,5.3-3.6.67-1.57,3.15-.85,2.38.81l-10.16,22.03c-.85,1.84-3.46.85-2.52-1.17l5.66-12.23,1.44-2.92c.22-.49.09-.58-.41-.36-.49.18-1.03.31-1.62.36Z" fill="#104410" stroke-width="0"/><path d="m299.27,207.93c-5.53,0-7.69-5.57-5.98-10.43,1.48-4.32,5.71-7.96,10.52-7.96,4.54,0,7.01,3.46,7.01,7.33,0,10.83-10.25,22.39-21.35,22.39-1.66,0-3.6-.27-5.04-.9-1.75-.81-.58-3.78,1.26-2.88,1.08.58,2.74.81,4.09.81,6.29,0,11.87-4.32,15.33-9.8.54-.81.36-.9-.45-.36-1.57,1.08-3.42,1.8-5.39,1.8Zm4.27-15.51c-3.19,0-6.25,2.74-7.37,5.93-1.17,3.37.04,6.7,3.73,6.7,4.18,0,7.96-4.58,7.96-8.32,0-2.47-1.66-4.32-4.32-4.32Z" fill="#104410" stroke-width="0"/><path d="m317.43,194.76c0-4.94,4.63-8.54,8.81-8.54,3.37,0,5.53,2.34,5.53,5.44s-2.16,6.07-4.94,7.6c-.45.23-.49.58-.22.99.67.99,1.03,2.2,1.03,3.55,0,5.17-4.94,9.8-10.07,9.8-3.96,0-6.43-2.47-6.43-6.07,0-3.78,2.83-7.55,6.47-9.08.45-.22.58-.58.36-1.03-.36-.81-.54-1.71-.54-2.65Zm-3.15,12.41c0,2.25,1.66,3.55,3.73,3.55,3.33,0,6.56-3.51,6.56-6.79,0-2.11-1.48-3.46-3.6-3.46-3.51,0-6.7,3.55-6.7,6.7Zm6.2-12.63c0,1.89,1.3,2.92,3.01,2.92,2.65,0,5.3-2.83,5.3-5.44,0-1.8-1.26-2.97-3.01-2.97-2.79,0-5.3,2.97-5.3,5.48Z" fill="#104410" stroke-width="0"/><path d="m344.13,189.55c4.45,0,6.7,3.33,6.7,7.64,0,7.1-6.25,16.36-13.84,16.36-4.45,0-6.61-2.88-6.61-7.06,0-7.24,6.16-16.95,13.76-16.95Zm-6.7,21.13c5.39,0,10.43-8.05,10.43-13.35,0-3.06-1.66-4.94-4-4.94-5.39,0-10.52,8.36-10.52,13.71,0,3.1,1.8,4.58,4.09,4.58Z" fill="#104410" stroke-width="0"/></svg>